<svg xmlns="http://www.w3.org/2000/svg" viewBox="0 0 96 72" role="img" aria-labelledby="title desc">
  <title id="title">Dragonfruit Technologies logo mark</title>
  <desc id="desc">A sharp geometric D emblem with a dragonfruit magenta wedge accent.</desc>
  <path fill="#09070a" d="M20 13H54C71 13 84 26 84 42C84 58 71 69 53 69H38L49 56H54C63 56 70 50 70 41C70 30 62 23 51 23H34L20 13Z"/>
  <path fill="#24101d" d="M34 23H51C62 23 70 30 70 41C70 50 63 56 54 56H49L59 45C62 41 60 36 56 33L34 23Z"/>
  <path fill="#f02d72" d="M23 58L47 31L59 45L47 58H23Z"/>
</svg>
